# xmcd
#
# Track frame offsets:
#	150
#	14158
#	26699
#	41835
#	53697
#	71954
#	87230
#	101589
#	118536
#	132570
#	144499
#	159152
#
# Disc length: 2365 seconds
#
# Revision: 1
# Processed by: cddbd v1.5.2PL0 Copyright (c) Steve Scherf et al.
# Submitted via: audiograbber 1.83.01
#
DISCID=a9093b0c
DTITLE=The Blackhill Ramblers - Rambler Tracks One
DYEAR=2005
DGENRE=Country
TTITLE0=I'm Blue I'm Lonesome
TTITLE1=Twenty Flight Rock
TTITLE2=Parramatta Hot Rod Man
TTITLE3=Highway Patrol
TTITLE4=California Blues
TTITLE5=Time Marches On
TTITLE6=Heartbreak Train
TTITLE7=Folsom Prison
TTITLE8=Wine, Whiskey, All Alcohol
TTITLE9=No Lovin' Tonight
TTITLE10=Little Old Wine Drinker
TTITLE11=Honey I Do
EXTD=
EXTT0=
EXTT1=
EXTT2=
EXTT3=
EXTT4=
EXTT5=
EXTT6=
EXTT7=
EXTT8=
EXTT9=
EXTT10=
EXTT11=
PLAYORDER=
